<?xml version="1.0"?>
<svg xmlns="http://www.w3.org/2000/svg" xmlns:xlink="http://www.w3.org/1999/xlink" version="1.1" id="Capa_1" x="0px" y="0px" viewBox="0 0 496 496" style="enable-background:new 0 0 496 496;" xml:space="preserve" width="512px" height="512px" class=""><g><path style="fill:#F50057" d="M176.004,393.136V312h-16v81.136c-13.768,3.576-24,16-24,30.864c0,17.648,14.352,32,32,32  s32-14.352,32-32C200.004,409.136,189.772,396.712,176.004,393.136z M168.004,440c-8.824,0-16-7.176-16-16s7.176-16,16-16  s16,7.176,16,16S176.828,440,168.004,440z" data-original="#E56565" class="active-path" data-old_color="#E56565"/><path style="fill:#F50057" d="M344.004,144h-19.152c-18.808,0-37.192-5.568-52.848-16l0,0l0,0c-15.648,10.432-34.04,16-52.848,16  h-67.152h-16v-24c0-61.856,50.144-112,112-112l0,0c61.856,0,112,50.144,112,112v24H344.004z" data-original="#FFCB57" class="" data-old_color="#FFCB57"/><g>
	<path style="fill:#3F3A34" d="M447.82,390.192c-5.376-32.232-27.976-58.68-58.976-69.016l-68.84-22.944V288h-16v15.024   l-11.936,47.752L259.756,312h-23.504l-32.312,38.776l-11.936-47.752V288h-16v10.232l-68.832,22.944   c-31,10.336-53.6,36.784-58.976,69.016L30.556,496h434.888L447.82,390.192z M391.244,480l-7.28-72.8l-15.92,1.592l7.12,71.2   h-119.16V352h-16v128h-119.16l7.12-71.2l-15.92-1.592l-7.28,72.8H49.452l14.52-87.168c4.4-26.376,22.888-48.008,48.256-56.472   l66.112-22.04l17.728,70.904L243.756,328h8.496l47.688,57.224l17.728-70.904l66.112,22.04   c25.368,8.456,43.856,30.096,48.256,56.472L446.556,480H391.244z" data-original="#3F3A34" class=""/>
	<path style="fill:#3F3A34" d="M147.54,215.552c4.08,14.04,11.616,26.912,22.24,37.536l31.192,31.2   c7.552,7.552,17.6,11.712,28.288,11.712h37.488c10.688,0,20.736-4.16,28.288-11.712l31.192-31.2   c10.624-10.624,18.152-23.504,22.24-37.536c19.936-2.256,35.536-19.024,35.536-39.552c0-13.128-6.448-24.704-16.248-32h0.248v-24   c0-66.168-53.832-120-120-120s-120,53.832-120,120v24h0.248c-9.8,7.296-16.248,18.872-16.248,32   C112.004,196.528,127.604,213.296,147.54,215.552z M314.916,241.776l-31.192,31.2c-4.536,4.528-10.56,7.024-16.976,7.024H229.26   c-6.416,0-12.448-2.496-16.976-7.024l-31.192-31.2c-13.592-13.6-21.088-31.68-21.088-50.912V152h59.16   c18.704,0,36.856-5.008,52.84-14.544c15.984,9.536,34.144,14.544,52.84,14.544h11.16v38.864   C336.004,210.096,328.508,228.176,314.916,241.776z M351.628,198.64c0.224-2.568,0.376-5.16,0.376-7.776v-37.392   c9.288,3.312,16,12.112,16,22.528C368.004,186.552,361.108,195.44,351.628,198.64z M144.004,120c0-57.344,46.656-104,104-104   s104,46.656,104,104v16.808c-2.584-0.528-5.264-0.808-8-0.808h-19.16c-17.288,0-34.024-5.064-48.408-14.656l-4.432-2.96l-4.44,2.96   C253.18,130.936,236.452,136,219.164,136h-67.16c-2.736,0-5.416,0.28-8,0.808V120z M144.004,153.472v37.392   c0,2.616,0.152,5.208,0.376,7.784c-9.48-3.208-16.376-12.096-16.376-22.648C128.004,165.584,134.716,156.784,144.004,153.472z" data-original="#3F3A34" class=""/>
</g><path style="fill:#F50057" d="M366.316,394.208l-30.312-15.152v-58.624l-16-5.336v63.952l-30.312,15.16  c-10.904,5.456-17.688,16.424-17.688,28.624V432c0,17.648,14.352,32,32,32h8v-16h-8c-8.824,0-16-7.176-16-16v-9.168  c0-6.096,3.392-11.584,8.84-14.312l31.16-15.576l31.16,15.576c5.448,2.728,8.84,8.216,8.84,14.312V432c0,8.824-7.176,16-16,16h-8v16  h8c17.648,0,32-14.352,32-32v-9.168C384.004,410.632,377.22,399.664,366.316,394.208z" data-original="#E56565" class="active-path" data-old_color="#E56565"/></g> </svg>
