<?xml version="1.0"?>
<svg xmlns="http://www.w3.org/2000/svg" height="512px" viewBox="0 0 496 496" width="512px" class="hovered-paths"><g><path d="m328 232.984375c0-14.679687 9.992188-27.480469 24.238281-31.046875l31.761719-7.9375v-16.585938c-14.3125-8.300781-24-23.679687-24-41.414062v-16c0-17.753906 9.671875-33.207031 24-41.511719v-38.488281h-368v232h312zm0 0" fill="#f0bc5e" data-original="#F0BC5E" class="hovered-path active-path" style="fill:#8A3EFC" data-old_color="#f0bc5e"/><path d="m16 48h368c8.824219 0 16-7.175781 16-16v-16c0-8.824219-7.175781-16-16-16h-368c-8.824219 0-16 7.175781-16 16v16c0 8.824219 7.175781 16 16 16zm0-32h368l.007812 16h-368.007812zm0 0" data-original="#000000" class=""/><path d="m352 64h-118.472656l-21.671875 101.144531-15.855469-21.144531h-28v16h20l32.144531 42.855469 26.328125-122.855469h105.527344zm0 0" data-original="#000000" class=""/><path d="m338.34375 98.34375-34.34375 34.34375-34.34375-34.34375-11.3125 11.3125 34.34375 34.34375-34.34375 34.34375 11.3125 11.3125 34.34375-34.34375 34.34375 34.34375 11.3125-11.3125-34.34375-34.34375 34.34375-34.34375zm0 0" data-original="#000000" class=""/><path d="m160 120c0-30.878906-25.128906-56-56-56s-56 25.121094-56 56 25.128906 56 56 56 56-25.121094 56-56zm-16 0c0 7.183594-2.054688 13.832031-5.382812 19.664062l-26.617188-23.296874v-35.558594c18.230469 3.71875 32 19.878906 32 39.191406zm-80 0c0-19.3125 13.769531-35.472656 32-39.191406v42.824218l32.097656 28.085938c-6.722656 5.121094-15.007812 8.28125-24.097656 8.28125-22.054688 0-40-17.945312-40-40zm0 0" data-original="#000000" class=""/><path d="m48 192h128v16h-128zm0 0" data-original="#000000" class=""/><path d="m48 224h128v16h-128zm0 0" data-original="#000000" class=""/><path d="m465.695312 194.175781-32.617187-8.152343c18.746094-9.398438 30.921875-28.71875 30.921875-50.023438v-13.992188c0-31.078124-24.351562-57.085937-54.28125-57.984374-15.421875-.574219-29.757812 5.144531-40.71875 15.785156s-17 24.910156-17 40.191406v16c0 21.304688 12.175781 40.625 30.921875 50.023438l-32.617187 8.152343c-17.839844 4.464844-30.304688 20.417969-30.304688 38.808594v79.015625c0 13.230469 10.769531 24 24 24 2.816406 0 5.488281-.574219 8-1.472656v137.472656c0-17.6875-11.871094-33.433594-28.878906-38.289062l-27.121094-7.742188v-2.128906c9.96875-7.511719 16-19.328125 16-31.832032v-14.335937c0-21.503906-16.007812-39.726563-36.441406-41.503906-11.246094-.984375-22.351563 2.800781-30.589844 10.351562-8.242188 7.550781-12.96875 18.296875-12.96875 29.480469v16c0 12.503906 6.03125 24.328125 16 31.832031v2.128907l-24 6.855468-24-6.855468v-2.128907c9.96875-7.511719 16-19.328125 16-31.832031v-14.335938c0-21.503906-16.007812-39.726562-36.441406-41.503906-11.246094-.984375-22.351563 2.800782-30.589844 10.351563-8.242188 7.550781-12.96875 18.304687-12.96875 29.488281v16c0 12.503906 6.03125 24.328125 16 31.832031v2.128907l-24 6.855468-24-6.855468v-2.128907c9.96875-7.511719 16-19.328125 16-31.832031v-14.335938c0-21.503906-16.007812-39.726562-36.441406-41.503906-11.238282-.984375-22.351563 2.800782-30.589844 10.351563-8.242188 7.550781-12.96875 18.304687-12.96875 29.488281v16c0 12.503906 6.03125 24.328125 16 31.832031v2.128907l-27.121094 7.75c-17.007812 4.855468-28.878906 20.601562-28.878906 38.289062v24h464v-161.472656c2.511719.898437 5.183594 1.472656 8 1.472656 13.230469 0 24-10.769531 24-24v-79.015625c0-18.390625-12.464844-34.34375-30.304688-38.808594zm-369.695312 277.824219v8h-80v-8c0-10.574219 7.105469-20 17.273438-22.902344l38.726562-11.066406v-23.070312l-3.976562-2.3125c-7.527344-4.382813-12.023438-12.105469-12.023438-20.648438v-16c0-6.710938 2.832031-13.160156 7.792969-17.695312 5.007812-4.59375 11.582031-6.769532 18.382812-6.207032 12.238281 1.0625 21.824219 12.285156 21.824219 25.566406v14.335938c0 8.542969-4.496094 16.265625-12.023438 20.648438l-3.976562 2.3125v23.070312l19.894531 5.6875c-7.390625 7.320312-11.894531 17.425781-11.894531 28.28125zm144 8h-128v-8c0-10.574219 7.105469-20 17.273438-22.902344l38.726562-11.066406v-23.070312l-3.976562-2.3125c-7.527344-4.382813-12.023438-12.105469-12.023438-20.648438v-16c0-6.710938 2.832031-13.160156 7.792969-17.695312 5.007812-4.59375 11.550781-6.769532 18.382812-6.207032 12.238281 1.0625 21.824219 12.285156 21.824219 25.566406v14.335938c0 8.542969-4.496094 16.265625-12.023438 20.648438l-3.976562 2.3125v23.070312l38.726562 11.066406c10.167969 2.902344 17.273438 12.328125 17.273438 22.902344zm96 0h-80v-8c0-10.855469-4.503906-20.960938-11.894531-28.28125l19.894531-5.6875v-23.070312l-3.976562-2.3125c-7.527344-4.382813-12.023438-12.105469-12.023438-20.648438v-16c0-6.710938 2.832031-13.160156 7.792969-17.695312 5.015625-4.59375 11.550781-6.769532 18.382812-6.207032 12.238281 1.0625 21.824219 12.285156 21.824219 25.566406v14.335938c0 8.542969-4.496094 16.265625-12.023438 20.648438l-3.976562 2.3125v23.070312l38.726562 11.066406c10.167969 2.902344 17.273438 12.328125 17.273438 22.902344zm32-344v-16c0-10.910156 4.3125-21.113281 12.152344-28.703125 7.832031-7.601563 18.214844-11.542969 29.085937-11.273437 21.371094.640624 38.761719 19.472656 38.761719 41.984374v13.992188c0 16.878906-10.71875 32.015625-26.671875 37.664062l-5.328125 1.894532v16.441406c0 4.40625-3.585938 8-8 8s-8-3.59375-8-8v-16.441406l-5.328125-1.886719c-15.953125-5.65625-26.671875-20.792969-26.671875-37.671875zm80 176v168h-32v-104h-16v104h-32v-176h80zm32 0c0 4.40625-3.585938 8-8 8s-8-3.59375-8-8v-80h-16v56h-80v-56h-16v80c0 4.40625-3.585938 8-8 8s-8-3.59375-8-8v-79.015625c0-11.03125 7.480469-20.609375 18.175781-23.289063l31.921875-7.976562c3.742188 8.394531 12.132813 14.28125 21.902344 14.28125s18.160156-5.886719 21.902344-14.28125l31.921875 7.976562c10.695312 2.679688 18.175781 12.257813 18.175781 23.289063zm0 0" data-original="#000000" class=""/><path d="m400 232h16v16h-16zm0 0" data-original="#000000" class=""/></g> </svg>
