<?xml version="1.0"?>
<svg xmlns="http://www.w3.org/2000/svg" id="_x33_0" enable-background="new 0 0 64 64" height="512px" viewBox="0 0 64 64" width="512px" class="hovered-paths"><g><g><g><path d="m32 10.794c0-5.4-4.394-9.794-9.794-9.794h-4.412c-5.4 0-9.794 4.394-9.794 9.794 0 .879.108 1.76.322 2.618l.85 3.396-.062.43c.339-1.286 1.498-2.238 2.89-2.238h1l.003.053c.014-1.879 1.079-3.594 2.761-4.435l1.236-.618.008-.012c.042 1.67 1.402 3.012 3.082 3.012 1.265 0 2.522-.204 3.722-.604l.923-.308c.176-.058.359-.088.544-.088.951 0 1.721.77 1.721 1.721v1.279h1c1.392 0 2.551.952 2.89 2.238l-.062-.43.851-3.396c.213-.858.321-1.738.321-2.618z" fill="#f0bc5e" data-original="#F0BC5E" class="hovered-path active-path" style="fill:#F50057" data-old_color="#f0bc5e"/></g><g><g><path d="m55 23h-2c-1.103 0-2-.897-2-2-1.103 0-2-.897-2-2v-2c0-1.103.897-2 2-2 0-1.103.897-2 2-2h2c1.103 0 2 .897 2 2 1.103 0 2 .897 2 2v2c0 1.103-.897 2-2 2 0 1.103-.897 2-2 2z" fill="#f0bc5e" data-original="#F0BC5E" class="hovered-path active-path" style="fill:#F50057" data-old_color="#f0bc5e"/></g></g><g><circle cx="17" cy="17" r="1" data-original="#000000" class="" style="fill:#000000" data-old_color="#000000"/><circle cx="23" cy="17" r="1" data-original="#000000" class="" style="fill:#000000" data-old_color="#000000"/><path d="m23.789 20.658.105-.211-1.789-.895-.105.212c-.381.762-1.147 1.236-2 1.236s-1.619-.474-2-1.236l-.105-.211-1.789.895.105.21c.722 1.445 2.174 2.342 3.789 2.342s3.067-.897 3.789-2.342z" data-original="#000000" class="" style="fill:#000000" data-old_color="#000000"/><path d="m63 5v-2c0-1.103-.897-2-2-2h-20c-1.103 0-2 .897-2 2v2c0 1.103.897 2 2 2v19c0 3.165 2.113 5.842 5 6.705v1.295c0 1.302.839 2.402 2 2.816v3.184c0 1.302.839 2.402 2 2.816v15.184c0 .551-.448 1-1 1s-1-.449-1-1v-2c0-1.654-1.346-3-3-3s-3 1.346-3 3v4c0 .551-.448 1-1 1s-1-.449-1-1v-8c0-1.654-1.346-3-3-3v-2h2v-7.859c0-2.251-.774-4.46-2.181-6.218-1.461-1.826-3.528-3.084-5.821-3.543l-6.182-1.236-.591-2.363c1.422-.89 2.547-2.209 3.185-3.78h.59c2.206 0 4-1.794 4-4s-1.794-4-4-4v-.279c0-1.5-1.221-2.721-2.721-2.721-.294 0-.584.047-.86.14l-.924.308c-1.1.365-2.246.551-3.405.551-1.152 0-2.09-.937-2.09-2.09 0-.797.442-1.513 1.155-1.869l.292-.146-.895-1.789-.292.146c-1.229.615-2.049 1.777-2.225 3.113l-.72.359c-1.712.856-2.87 2.441-3.205 4.276h-.11c-2.206 0-4 1.794-4 4s1.794 4 4 4h.589c.638 1.571 1.763 2.891 3.185 3.78l-.591 2.363-6.181 1.237c-2.293.458-4.36 1.717-5.821 3.543-1.407 1.758-2.181 3.967-2.181 6.218v7.859h2v16h28v-8h1c2.414 0 4.434-1.721 4.899-4h.101c.552 0 1 .449 1 1v8c0 1.654 1.346 3 3 3s3-1.346 3-3v-4c0-.551.448-1 1-1s1 .449 1 1v2c0 1.654 1.346 3 3 3s3-1.346 3-3v-15.184c1.161-.414 2-1.514 2-2.816v-3.184c1.161-.414 2-1.514 2-2.816v-1.295c2.888-.863 5-3.541 5-6.705v-2.356c1.248-1.545 2-3.508 2-5.644s-.752-4.099-2-5.644v-5.356c1.103 0 2-.897 2-2zm-51 15c-1.103 0-2-.897-2-2s.897-2 2-2v3c0 .339.028.672.069 1zm23.257 14.172c1.124 1.405 1.743 3.17 1.743 4.969v5.859h-6v-1.764c0-1.308.31-2.618.895-3.789l-1.789-.894c-.724 1.447-1.106 3.067-1.106 4.683v3.764h-6.586l-1.14-1.14c-.084-.084-.181-.152-.274-.224v-2.636h2v-2h-2v-2h2v-2h-2v-2.213c.561-.221 1.055-.601 1.372-1.13l2.123-3.539 6.11 1.222c1.833.368 3.485 1.373 4.652 2.832zm-5.257-16.172c0 1.103-.897 2-2 2h-.069c.041-.328.069-.661.069-1v-3c1.103 0 2 .897 2 2zm-16 1v-3.91c0-1.525.847-2.896 2.211-3.578l.096-.048c.613 1.487 2.078 2.536 3.783 2.536 1.374 0 2.732-.221 4.038-.655l.925-.308c.443-.15.947.21.947.684v5.279c0 3.309-2.691 6-6 6s-6-2.691-6-6zm6 8c.828 0 1.628-.127 2.38-.362l.55 2.202-2.272 3.788c-.275.459-1.039.459-1.314 0l-2.274-3.788.55-2.202c.752.235 1.552.362 2.38.362zm-17 12.141c0-1.799.619-3.564 1.743-4.969 1.167-1.459 2.819-2.464 4.651-2.831l6.11-1.222 2.123 3.539c.317.529.811.909 1.372 1.13v2.212h-2v2h2v2h-2v2h2v2.014c-1.038.069-1.959.668-2.43 1.61l-.214.428c-1.899.309-3.355 1.962-3.355 3.948 0 2.206 1.794 4 4 4h2v6h-8v-17.764c0-1.616-.382-3.235-1.105-4.683l-1.789.894c.584 1.171.894 2.481.894 3.789v1.764h-6zm2 7.859h4v14h-4zm24 14h-8v-6h8zm3-8h-15c-1.103 0-2-.897-2-2s.897-2 2-2h.618l.741-1.482c.27-.54 1.074-.669 1.501-.244l1.726 1.726h9.414v-2h4v2h-2v2h1.816c-.414 1.161-1.514 2-2.816 2zm9-50h20l.001 2h-20.001zm4.059 16h-2.059v-2h2.059c-.037.329-.059.662-.059 1s.022.671.059 1zm5.941 22c-.552 0-1-.449-1-1v-3h2v3c0 .551-.448 1-1 1zm3-7c0 .551-.448 1-1 1h-4c-.552 0-1-.449-1-1v-1h6zm0-3h-6c-2.757 0-5-2.243-5-5v-5h2.525c1.239 3.49 4.565 6 8.475 6 1.849 0 3.569-.562 5-1.522v.522c0 2.757-2.243 5-5 5zm0-6c-3.859 0-7-3.14-7-7s3.141-7 7-7 7 3.14 7 7-3.141 7-7 7zm5-14.478c-1.431-.96-3.151-1.522-5-1.522-3.91 0-7.236 2.51-8.475 6h-2.525v-8h16z" data-original="#000000" class="" style="fill:#000000" data-old_color="#000000"/></g></g></g> </svg>
