<?xml version="1.0"?>
<svg xmlns="http://www.w3.org/2000/svg" id="Layer_3" enable-background="new 0 0 64 64" height="512px" viewBox="0 0 64 64" width="512px" class=""><g><path d="m44 55h-30c-1.654 0-3-1.346-3-3v-26c0-1.654 1.346-3 3-3h30c1.654 0 3 1.346 3 3v26c0 1.654-1.346 3-3 3z" fill="#f0bc5e" data-original="#F0BC5E" class="active-path" style="fill:#F50057" data-old_color="#f0bc5e"/><path d="m33.636 28c-1.708 0-3.327.578-4.636 1.641-1.308-1.063-2.927-1.641-4.636-1.641-4.06 0-7.364 3.304-7.364 7.364 0 1.967.766 3.816 2.157 5.207l9.843 9.843 9.843-9.843c1.391-1.39 2.157-3.24 2.157-5.207 0-4.06-3.304-7.364-7.364-7.364zm-9.272 2c1.433 0 2.78.558 3.792 1.57l.844.847.843-.846c1.012-1.013 2.36-1.571 3.793-1.571 2.833 0 5.136 2.215 5.327 5h-7.64l-1.425 3.561-2.898-5.797-2.124 4.248-1.341-2.012h-4.498c.191-2.785 2.494-5 5.327-5zm4.636 17.586-8.429-8.429c-.603-.603-1.027-1.353-1.287-2.157h3.181l2.659 3.988 1.876-3.752 3.102 6.202 2.575-6.438h6.039c-.26.804-.684 1.554-1.287 2.157z" data-original="#000000" class="" style="fill:#000000"/><path d="m63 16c0-3.552-2.662-6.488-6.094-6.935-.44-2.31-2.469-4.065-4.906-4.065h-4v-4h-6v4h-2v-4h-6v4h-2v-4h-6v4h-2v-4h-6v4h-2v-4h-6v4h-4c-2.757 0-5 2.243-5 5v53h56v-3.63l6-6.999zm-2 0v3h-10v-3c0-2.757 2.243-5 5-5s5 2.243 5 5zm-8.826 37h7.651l-3.825 4.464zm-1.174-2v-26h4v26zm6 0v-26h4v26zm-6-28v-2h10v2zm-7-20h2v6h-2zm-8 0h2v6h-2zm-8 0h2v6h-2zm-8 0h2v6h-2zm-8 0h2v6h-2zm-6 4h4v4h6v-4h2v4h6v-4h2v4h6v-4h2v4h6v-4h2v4h6v-4h4c1.34 0 2.464.889 2.848 2.103-2.987.498-5.335 2.889-5.768 5.897h-46.08v-5c0-1.654 1.346-3 3-3zm-3 54v-44h46v35.37l6 6.999v1.631z" data-original="#000000" class="" style="fill:#000000"/></g> </svg>
