<?xml version="1.0"?>
<svg xmlns="http://www.w3.org/2000/svg" id="Layer_35" enable-background="new 0 0 64 64" height="512px" viewBox="0 0 64 64" width="512px" class=""><g><g fill="#f0bc5e"><path d="m53 21h-6v-4h-4v-6h4v-4h6v4h4v6h-4z" data-original="#F0BC5E" class="active-path" style="fill:#F50057" data-old_color="#F0BC5E"/><path d="m6 36h6v10h-6z" data-original="#F0BC5E" class="active-path" style="fill:#F50057" data-old_color="#F0BC5E"/><path d="m35 59h-20v-1.737c0-1.777 1.193-3.358 2.901-3.846l4.099-1.171v-.266c-1.246-.939-2-2.416-2-3.979v-2c0-1.397.591-2.741 1.622-3.686 1.029-.944 2.423-1.42 3.822-1.294 2.555.22 4.556 2.499 4.556 5.187v1.792c0 1.563-.754 3.041-2 3.979v.266l4.099 1.171c1.708.488 2.901 2.07 2.901 3.847z" data-original="#F0BC5E" class="active-path" style="fill:#F50057" data-old_color="#F0BC5E"/><path d="m41 46h14v9h-14z" data-original="#F0BC5E" class="active-path" style="fill:#F50057" data-old_color="#F0BC5E"/></g><path d="m60 33h-7v-6.363c5.724-1.36 10-6.502 10-12.637 0-7.168-5.832-13-13-13s-13 5.832-13 13c0 2.578.763 4.977 2.063 7h-16.063c-.313 0-.612-.149-.8-.4l-1.8-2.401c-.564-.751-1.461-1.199-2.4-1.199h-14c-1.654 0-3 1.346-3 3v28c0 1.654 1.346 3 3 3h7v9c0 1.654 1.346 3 3 3h46c1.654 0 3-1.346 3-3v-24c0-1.654-1.346-3-3-3zm1 3v1h-48v-5c0-.551.449-1 1-1h14c.313 0 .612.149.8.4l1.8 2.401c.564.751 1.461 1.199 2.4 1.199h27c.551 0 1 .449 1 1zm-11-33c6.065 0 11 4.935 11 11s-4.935 11-11 11-11-4.935-11-11 4.935-11 11-11zm-46 16h14c.313 0 .612.149.8.4l1.8 2.401c.564.751 1.461 1.199 2.4 1.199h17.641c.734.764 1.562 1.433 2.463 2h-40.104v-5c0-.551.449-1 1-1zm0 30c-.551 0-1-.449-1-1v-21h47c.338 0 .669-.025 1-.051v6.051h-18c-.313 0-.612-.149-.8-.4l-1.8-2.401c-.564-.751-1.461-1.199-2.4-1.199h-14c-1.654 0-3 1.346-3 3v3h-6v12h6v2zm7-12v8h-4v-8zm49 24h-46c-.551 0-1-.449-1-1v-21h48v21c0 .551-.449 1-1 1z" data-original="#000000" class="" style="fill:#000000"/><path d="m15 33h2v2h-2z" data-original="#000000" class="" style="fill:#000000"/><path d="m19 33h2v2h-2z" data-original="#000000" class="" style="fill:#000000"/><path d="m23 33h2v2h-2z" data-original="#000000" class="" style="fill:#000000"/><path d="m5 21h2v2h-2z" data-original="#000000" class="" style="fill:#000000"/><path d="m9 21h2v2h-2z" data-original="#000000" class="" style="fill:#000000"/><path d="m13 21h2v2h-2z" data-original="#000000" class="" style="fill:#000000"/><path d="m37 59h22v-18h-22zm2-16h18v14h-18z" data-original="#000000" class="" style="fill:#000000"/><path d="m41 45h14v2h-14z" data-original="#000000" class="" style="fill:#000000"/><path d="m41 49h14v2h-14z" data-original="#000000" class="" style="fill:#000000"/><path d="m41 53h2v2h-2z" data-original="#000000" class="" style="fill:#000000"/><path d="m45 53h10v2h-10z" data-original="#000000" class="" style="fill:#000000"/><path d="m15 41h2v2h-2z" data-original="#000000" class="" style="fill:#000000"/><path d="m15 45h2v2h-2z" data-original="#000000" class="" style="fill:#000000"/><path d="m15 49h2v2h-2z" data-original="#000000" class="" style="fill:#000000"/><path d="m47 29h2v2h-2z" data-original="#000000" class="" style="fill:#000000"/><path d="m43 29h2v2h-2z" data-original="#000000" class="" style="fill:#000000"/><path d="m39 29h2v2h-2z" data-original="#000000" class="" style="fill:#000000"/></g> </svg>
