<?xml version="1.0"?>
<svg xmlns="http://www.w3.org/2000/svg" xmlns:xlink="http://www.w3.org/1999/xlink" version="1.1" id="Capa_1" x="0px" y="0px" viewBox="0 0 496.592 496.592" style="enable-background:new 0 0 496.592 496.592;" xml:space="preserve" width="512px" height="512px" class="hovered-paths"><g><path style="fill:#8A3EFC" d="M316.464,32.848l-4-4C293.856,10.248,269.12,0,242.8,0c-54.32,0-98.504,44.184-98.504,98.504V160h8  c0-13.256,10.744-24,24-24v-8c20.488,0,40.136-8.136,54.624-22.624L240.296,96l0.824,1.096C255.712,116.552,278.608,128,302.92,128  h17.376v8c13.256,0,24,10.744,24,24h8V80.984C352.296,58.656,337.672,39.184,316.464,32.848z" data-original="#F0BC5E" class="active-path" data-old_color="#F0BC5E"/><path d="M400.296,328v-51.696l-21.816,8.488l-0.064-0.144l-0.52-0.944c-8.36-13.016-21.88-22.072-37.104-24.832l-52.496-9.552  v-4.144c19.632-11.4,34.008-30.848,38.488-53.84c14.544-3.008,25.512-15.912,25.512-31.336c0-14.872-10.24-27.288-24-30.864V120  h-25.368c-21.68,0-42.4-10.352-55.4-27.688l-6.36-8.496L225.272,99.72C212.184,112.8,194.792,120,176.296,120h-8v9.136  c-13.76,3.576-24,15.992-24,30.864c0,15.424,10.968,28.328,25.512,31.336c4.488,22.992,18.856,42.448,38.488,53.84v4.144  l-52.488,9.544c-15.208,2.76-28.72,11.8-37.088,24.808l-0.48,1.168l-21.944-8.536V328c-13.232,0-24,10.768-24,24v32  c0,13.232,10.768,24,24,24v29.472l152,59.12l152-59.12V408c13.232,0,24-10.768,24-24v-32C424.296,338.768,413.528,328,400.296,328z   M160.296,160c0-5.896,3.24-11,8-13.776v27.552C163.536,171,160.296,165.896,160.296,160z M363.184,290.736l-77.4,30.096  l17.504-52.52l34.64,6.296C348.128,276.464,357.16,282.352,363.184,290.736z M248.296,335.416l-31.752-12.344l31.752-31.76  l31.752,31.752L248.296,335.416z M214.296,264.496l21.824,16.368l-16.328,16.32L209.2,265.416L214.296,264.496z M287.392,265.424  L276.8,297.192l-16.328-16.32l21.824-16.368L287.392,265.424z M248.296,270l-23.32-17.488c7.384,2.256,15.208,3.488,23.32,3.488  s15.936-1.232,23.32-3.488L248.296,270z M336.296,160c0,5.896-3.24,11-8,13.776v-27.552C333.056,149,336.296,154.104,336.296,160z   M184.296,176v-40.368c19.752-1.832,38.08-10.4,52.288-24.6l3.112-3.112c16.04,17.704,39.144,28.08,63.232,28.08h9.368v40  c0,35.288-28.712,64-64,64S184.296,211.288,184.296,176z M158.664,274.608l34.64-6.296l17.504,52.52l-77.416-30.104  C139.416,282.336,148.464,276.464,158.664,274.608z M88.296,384v-32c0-4.416,3.592-8,8-8c13.232,0,24,10.768,24,24s-10.768,24-24,24  C91.888,392,88.296,388.416,88.296,384z M112.296,404.608c14.104-6.192,24-20.248,24-36.608s-9.896-30.416-24-36.608v-31.696  l128,49.776v126.832l-128-49.768V404.608z M384.296,426.528l-128,49.768V349.472l128-49.776v31.696  c-14.104,6.192-24,20.248-24,36.608s9.896,30.416,24,36.608V426.528z M408.296,384c0,4.416-3.592,8-8,8c-13.232,0-24-10.768-24-24  s10.768-24,24-24c4.408,0,8,3.584,8,8V384z" data-original="#000000" class=""/></g> </svg>
